<?xml version="1.0" encoding="utf-8"?>
<!-- Generator: Adobe Illustrator 16.0.4, SVG Export Plug-In . SVG Version: 6.00 Build 0)  -->
<!DOCTYPE svg PUBLIC "-//W3C//DTD SVG 1.1//EN" "http://www.w3.org/Graphics/SVG/1.1/DTD/svg11.dtd">
<svg version="1.1" id="Layer_1" xmlns="http://www.w3.org/2000/svg" xmlns:xlink="http://www.w3.org/1999/xlink" x="0px" y="0px"
	 width="512px" height="512px" viewBox="0 0 512 512" enable-background="new 0 0 512 512" xml:space="preserve">
<path fill="#70A7DA" d="M5,25.026L5,25.026C5,13.413,14.414,4,26.026,4h459.189c5.575,0,10.925,2.215,14.865,6.158
	c3.946,3.943,6.161,9.292,6.161,14.868v462.719c0,11.615-9.415,21.027-21.026,21.027H26.026C14.414,508.772,5,499.36,5,487.745
	V25.026z"/>
<path fill="#FFFFFF" d="M413.743,466.705l-43.016,2.751l-1.877-1.751v-11.503l-1-0.251c-4.334,4.834-9.7,8.795-16.09,11.881
	c-6.363,3.084-12.92,4.626-19.675,4.626c-7.002,0-13.781-1.557-20.338-4.67c-6.532-3.14-12.214-7.545-17.051-13.212
	c-4.918-5.752-8.82-12.673-11.712-20.759c-2.862-8.087-4.292-17.005-4.292-26.76c0-8.92,1.542-17.383,4.626-25.384
	c3.085-8.004,7.335-15.007,12.755-21.01c5.086-5.586,11.308-10.045,18.673-13.38c7.392-3.335,14.924-5.001,22.593-5.001
	c5.752,0,11.393,0.736,16.924,2.209c5.556,1.444,10.337,3.293,14.337,5.543v-42.891c0-3.502-0.583-6.682-1.75-9.546
	c-1.168-2.89-2.793-5.085-4.876-6.587c-2.336-1.583-5.487-2.722-9.464-3.416c-3.946-0.724-8.211-1.252-12.795-1.586v-7.751
	l50.394-2.878l1.877,1.876V443.57c0,2.919,0.554,5.404,1.666,7.463c1.139,2.027,2.793,3.751,4.962,5.169
	c1.583,0.998,3.875,1.623,6.877,1.876c3,0.248,5.751,0.416,8.252,0.499V466.705z M368.601,445.072V372.92
	c-0.667-2.169-1.75-4.503-3.25-7.003c-1.501-2.501-3.376-4.793-5.626-6.878c-2.419-2.085-5.253-3.808-8.505-5.169
	c-3.252-1.39-7.044-2.084-11.38-2.084c-5.003,0-9.615,1.292-13.836,3.876c-4.198,2.586-7.921,6.295-11.172,11.129
	c-3.084,4.669-5.531,10.616-7.338,17.842c-1.778,7.196-2.667,15.173-2.667,23.927c0,7,0.666,13.365,2.001,19.088
	c1.334,5.697,3.585,11.005,6.752,15.923c2.917,4.669,6.642,8.421,11.17,11.257c4.558,2.833,9.964,4.251,16.216,4.251
	c6.669,0,12.186-1.46,16.549-4.377C361.903,451.783,365.601,448.573,368.601,445.072z"/>
<path fill="#FFFFFF" d="M436.771,327.306c-4.479,0-8.576-0.481-12.294-1.448c-3.716-0.95-6.909-2.241-9.575-3.873
	c-2.668-1.631-4.733-3.506-6.193-5.628c-1.445-2.12-2.168-4.302-2.168-6.543c0-1.999,0.571-3.798,1.715-5.402
	c1.144-1.617,2.978-2.427,5.503-2.427c2.858,0,5.034,0.604,6.526,1.814c1.509,1.196,2.265,2.567,2.265,4.117
	c0,1.306-0.256,2.959-0.763,4.955c-0.495,1.999-0.883,3.426-1.166,4.282c0.332,0.367,0.936,0.856,1.809,1.468
	c0.889,0.61,1.978,1.162,3.264,1.651c1.525,0.612,3.121,1.101,4.789,1.468s4.024,0.551,7.074,0.551c2.86,0,5.605-0.408,8.242-1.223
	c2.653-0.816,4.979-2.121,6.979-3.915c2.098-1.877,3.725-4.072,4.884-6.586c1.176-2.5,1.763-5.79,1.763-9.865
	c0-2.204-0.279-4.386-0.833-6.546c-0.54-2.163-1.55-4.038-3.026-5.627c-1.478-1.59-3.494-2.822-6.05-3.692
	c-2.541-0.883-5.765-1.324-9.672-1.324h-9.361v-7.032h6.216c6.576,0,11.314-1.552,14.223-4.649
	c2.905-3.099,4.359-7.769,4.359-14.005c0-5.099-1.406-8.938-4.216-11.521c-2.812-2.596-6.791-3.895-11.937-3.895
	c-2.477,0-4.518,0.258-6.121,0.775c-1.588,0.502-2.883,0.999-3.884,1.488c-1.191,0.57-2.168,1.203-2.93,1.896
	c-0.763,0.693-1.335,1.205-1.716,1.529c0.333,1.305,0.739,2.909,1.216,4.812c0.477,1.891,0.715,3.689,0.715,5.401
	c0,1.51-0.754,2.869-2.263,4.08c-1.494,1.193-3.692,1.792-6.598,1.792c-2.527,0-4.377-0.772-5.553-2.323
	c-1.158-1.551-1.739-3.344-1.739-5.382c0-2.121,0.693-4.281,2.072-6.484c1.384-2.203,3.431-4.26,6.147-6.178
	c2.715-1.915,6.026-3.465,9.936-4.646c3.905-1.184,8.405-1.774,13.505-1.774c5.861,0,10.704,0.747,14.531,2.241
	c3.844,1.482,6.86,3.283,9.052,5.405c2.145,2.078,3.622,4.261,4.432,6.543c0.81,2.283,1.216,4.242,1.216,5.872
	c0,2.04-0.334,4.092-1.002,6.158c-0.665,2.052-1.763,3.955-3.286,5.708c-1.668,1.917-3.876,3.663-6.623,5.239
	c-2.731,1.563-6.169,2.834-10.315,3.813v0.977c2.668,0.206,5.512,0.714,8.529,1.531c3.031,0.813,5.765,2.019,8.194,3.608
	c2.525,1.67,4.596,3.826,6.216,6.463c1.62,2.622,2.43,5.953,2.43,9.99c0,7.828-3.667,14.176-11.005,19.041
	C456.947,324.865,447.777,327.306,436.771,327.306z"/>
</svg>
