<?xml version="1.0" encoding="utf-8"?>
<!-- Generator: Adobe Illustrator 16.0.4, SVG Export Plug-In . SVG Version: 6.00 Build 0)  -->
<!DOCTYPE svg PUBLIC "-//W3C//DTD SVG 1.1//EN" "http://www.w3.org/Graphics/SVG/1.1/DTD/svg11.dtd">
<svg version="1.1" id="Layer_1" xmlns="http://www.w3.org/2000/svg" xmlns:xlink="http://www.w3.org/1999/xlink" x="0px" y="0px"
	 width="512px" height="256px" viewBox="0 256 512 256" enable-background="new 0 256 512 256" xml:space="preserve">
<g id="layer1">
	<path id="path2417" fill="#FF0000" d="M154.516,467.189c-4.268-4.553-14.923-13.424-23.681-19.716
		c-25.942-18.646-29.472-21.345-40.005-30.574c-19.419-17.016-27.666-34.114-27.636-57.296c0.013-11.317,0.824-15.674,4.154-22.346
		c5.648-11.317,13.97-19.727,24.61-24.871c7.536-3.641,11.253-5.261,23.836-5.326c13.165-0.067,15.936,1.392,23.679,5.44
		c9.425,4.928,19.125,15.46,21.131,22.94l1.238,4.62l3.055-6.363c17.26-35.961,72.365-35.421,91.543,0.894
		c6.082,11.521,6.75,36.119,1.357,49.976c-7.039,18.076-20.254,31.854-50.808,52.971c-20.037,13.85-42.713,34.805-44.294,37.748
		C160.863,478.703,162.609,475.82,154.516,467.189z"/>
	<g id="g2221" transform="translate(129.28571,-64.285714)">
	</g>
</g>
<text transform="matrix(1 0 0 1 216.542 476.8438)" font-family="'HelveticaNeue-CondensedBold'" font-size="242.2139">.JS</text>
<text transform="matrix(1 0 0 1 -8 476.8438)" font-family="'HelveticaNeue-CondensedBold'" font-size="242.2139">I</text>
</svg>
