<?xml version="1.0" encoding="utf-8"?>
<!-- Generator: Adobe Illustrator 16.0.4, SVG Export Plug-In . SVG Version: 6.00 Build 0)  -->
<!DOCTYPE svg PUBLIC "-//W3C//DTD SVG 1.1//EN" "http://www.w3.org/Graphics/SVG/1.1/DTD/svg11.dtd">
<svg version="1.1" id="Layer_1" xmlns="http://www.w3.org/2000/svg" xmlns:xlink="http://www.w3.org/1999/xlink" x="0px" y="0px"
	 width="370px" height="160px" viewBox="0 0 370 160" enable-background="new 0 0 370 160" xml:space="preserve">
<g>
	<g>
		<line fill="none" stroke="#6D6E71" stroke-miterlimit="10" x1="255" y1="19" x2="252" y2="19"/>
		
			<line fill="none" stroke="#6D6E71" stroke-miterlimit="10" stroke-dasharray="5.8687,5.8687" x1="246.131" y1="19" x2="166.904" y2="19"/>
		<line fill="none" stroke="#6D6E71" stroke-miterlimit="10" x1="163.97" y1="19" x2="160.97" y2="19"/>
		<g>
			<polygon fill="#6D6E71" points="163.778,15.297 162.205,19 163.778,22.703 155,19 			"/>
		</g>
	</g>
</g>
<g>
	<g>
		<line fill="none" stroke="#6D6E71" stroke-miterlimit="10" x1="255" y1="49" x2="252" y2="49"/>
		
			<line fill="none" stroke="#6D6E71" stroke-miterlimit="10" stroke-dasharray="5.8687,5.8687" x1="246.131" y1="49" x2="166.904" y2="49"/>
		<line fill="none" stroke="#6D6E71" stroke-miterlimit="10" x1="163.97" y1="49" x2="160.97" y2="49"/>
		<g>
			<polygon fill="#6D6E71" points="163.778,45.297 162.205,49 163.778,52.703 155,49 			"/>
		</g>
	</g>
</g>
<g>
	<g>
		<line fill="none" stroke="#6D6E71" stroke-miterlimit="10" x1="255" y1="79" x2="252" y2="79"/>
		
			<line fill="none" stroke="#6D6E71" stroke-miterlimit="10" stroke-dasharray="5.8687,5.8687" x1="246.131" y1="79" x2="166.904" y2="79"/>
		<line fill="none" stroke="#6D6E71" stroke-miterlimit="10" x1="163.97" y1="79" x2="160.97" y2="79"/>
		<g>
			<polygon fill="#6D6E71" points="163.778,75.297 162.205,79 163.778,82.703 155,79 			"/>
		</g>
	</g>
</g>
<g>
	<g>
		<line fill="none" stroke="#6D6E71" stroke-miterlimit="10" x1="255" y1="109" x2="252" y2="109"/>
		
			<line fill="none" stroke="#6D6E71" stroke-miterlimit="10" stroke-dasharray="5.8687,5.8687" x1="246.131" y1="109" x2="166.904" y2="109"/>
		<line fill="none" stroke="#6D6E71" stroke-miterlimit="10" x1="163.97" y1="109" x2="160.97" y2="109"/>
		<g>
			<polygon fill="#6D6E71" points="163.778,105.297 162.205,109 163.778,112.703 155,109 			"/>
		</g>
	</g>
</g>
<g>
	<g>
		<line fill="none" stroke="#6D6E71" stroke-miterlimit="10" x1="255" y1="139" x2="252" y2="139"/>
		
			<line fill="none" stroke="#6D6E71" stroke-miterlimit="10" stroke-dasharray="5.8687,5.8687" x1="246.131" y1="139" x2="166.904" y2="139"/>
		<line fill="none" stroke="#6D6E71" stroke-miterlimit="10" x1="163.97" y1="139" x2="160.97" y2="139"/>
		<g>
			<polygon fill="#6D6E71" points="163.778,135.297 162.205,139 163.778,142.703 155,139 			"/>
		</g>
	</g>
</g>
<path fill="none" stroke="#6D6E71" stroke-miterlimit="10" d="M35,79c0-33.164,40.254-60,90-60"/>
<path fill="none" stroke="#6D6E71" stroke-miterlimit="10" d="M35,79.002C35,62.419,75.254,49,125,49"/>
<path fill="none" stroke="#6D6E71" stroke-miterlimit="10" d="M35,79.002c0,0,40.254,0,90,0"/>
<path fill="none" stroke="#6D6E71" stroke-miterlimit="10" d="M35,79.002C35,95.583,75.254,109,125,109"/>
<path fill="none" stroke="#6D6E71" stroke-miterlimit="10" d="M35,79.002C35,112.165,75.254,139,125,139"/>
<path fill="none" stroke="#808285" stroke-miterlimit="10" d="M335,79c0,0-35.781,0-80,0"/>
<path fill="none" stroke="#808285" stroke-miterlimit="10" d="M335,79c0-33.164-35.781-60-80-60"/>
<path fill="none" stroke="#808285" stroke-miterlimit="10" d="M335,79c0-16.582-35.781-30-80-30"/>
<path fill="none" stroke="#808285" stroke-miterlimit="10" d="M335,79c0,16.582-35.781,30-80,30"/>
<path fill="none" stroke="#808285" stroke-miterlimit="10" d="M335,79c0,33.164-35.781,60-80,60"/>
<path fill="#FFFFFF" stroke="#000000" stroke-miterlimit="10" d="M355,86c0,1.658-1.344,3-3,3h-34c-1.656,0-3-1.342-3-3V72
	c0-1.656,1.344-3,3-3h34c1.656,0,3,1.344,3,3V86z"/>
<path fill="#D1D3D4" d="M275,26c0,1.658-1.344,3-3,3h-34c-1.656,0-3-1.342-3-3V12c0-1.656,1.344-3,3-3h34c1.656,0,3,1.344,3,3V26z"
	/>
<path fill="#D1D3D4" d="M275,56c0,1.658-1.344,3-3,3h-34c-1.656,0-3-1.342-3-3V42c0-1.656,1.344-3,3-3h34c1.656,0,3,1.344,3,3V56z"
	/>
<path fill="#D1D3D4" d="M275,86c0,1.658-1.344,3-3,3h-34c-1.656,0-3-1.342-3-3V72c0-1.656,1.344-3,3-3h34c1.656,0,3,1.344,3,3V86z"
	/>
<path fill="#D1D3D4" d="M275,116c0,1.658-1.344,3-3,3h-34c-1.656,0-3-1.342-3-3v-14c0-1.656,1.344-3,3-3h34c1.656,0,3,1.344,3,3V116
	z"/>
<path fill="#D1D3D4" d="M275,146c0,1.658-1.344,3-3,3h-34c-1.656,0-3-1.342-3-3v-14c0-1.656,1.344-3,3-3h34c1.656,0,3,1.344,3,3V146
	z"/>
<text transform="matrix(1 0 0 1 324 82)" font-family="'MyriadPro-Regular'" font-size="11">array</text>
<text transform="matrix(1 0 0 1 236.0566 27.625)"><tspan x="0" y="0" font-family="'MyriadPro-Regular'" font-size="8">1</tspan><tspan x="0" y="30" font-family="'MyriadPro-Regular'" font-size="8">2</tspan><tspan x="0" y="60" font-family="'MyriadPro-Regular'" font-size="8">3</tspan><tspan x="0" y="90" font-family="'MyriadPro-Regular'" font-size="8">4</tspan><tspan x="0" y="120" font-family="'MyriadPro-Regular'" font-size="8">5</tspan></text>
<text transform="matrix(1 0 0 1 245.9219 24.8447)"><tspan x="0" y="0" font-family="'MyriadPro-Regular'" font-size="17">23</tspan><tspan x="0" y="30" font-family="'MyriadPro-Regular'" font-size="17">89</tspan><tspan x="0" y="60" font-family="'MyriadPro-Regular'" font-size="17">17</tspan><tspan x="0" y="90" font-family="'MyriadPro-Regular'" font-size="17">31</tspan><tspan x="0" y="120" font-family="'MyriadPro-Regular'" font-size="17">11</tspan></text>
<path fill="#FFFFFF" stroke="#000000" stroke-miterlimit="10" d="M55,86c0,1.658-1.344,3-3,3H18c-1.656,0-3-1.342-3-3V72
	c0-1.656,1.344-3,3-3h34c1.656,0,3,1.344,3,3V86z"/>
<text transform="matrix(1 0 0 1 18 82)" font-family="'MyriadPro-Regular'" font-size="11">selectie</text>
<path fill="#39B54A" d="M155,26c0,1.658-2.016,3-4.5,3h-51c-2.484,0-4.5-1.342-4.5-3V12c0-1.656,2.016-3,4.5-3h51
	c2.484,0,4.5,1.344,4.5,3V26z"/>
<path fill="#39B54A" d="M155,56c0,1.658-2.016,3-4.5,3h-51c-2.484,0-4.5-1.342-4.5-3V42c0-1.656,2.016-3,4.5-3h51
	c2.484,0,4.5,1.344,4.5,3V56z"/>
<path fill="#39B54A" d="M155,86c0,1.658-2.016,3-4.5,3h-51c-2.484,0-4.5-1.342-4.5-3V72c0-1.656,2.016-3,4.5-3h51
	c2.484,0,4.5,1.344,4.5,3V86z"/>
<path fill="#39B54A" d="M155,116c0,1.658-2.016,3-4.5,3h-51c-2.484,0-4.5-1.342-4.5-3v-14c0-1.656,2.016-3,4.5-3h51
	c2.484,0,4.5,1.344,4.5,3V116z"/>
<path fill="#39B54A" d="M155,146c0,1.658-2.016,3-4.5,3h-51c-2.484,0-4.5-1.342-4.5-3v-14c0-1.656,2.016-3,4.5-3h51
	c2.484,0,4.5,1.344,4.5,3V146z"/>
<text transform="matrix(1 0 0 1 96 27)"><tspan x="0" y="0" font-family="'MyriadPro-Regular'" font-size="8">1</tspan><tspan x="0" y="30" font-family="'MyriadPro-Regular'" font-size="8">2</tspan><tspan x="0" y="60" font-family="'MyriadPro-Regular'" font-size="8">3</tspan><tspan x="0" y="90" font-family="'MyriadPro-Regular'" font-size="8">4</tspan><tspan x="0" y="120" font-family="'MyriadPro-Regular'" font-size="8">5</tspan></text>
<text transform="matrix(1 0 0 1 106 24.8447)"><tspan x="0" y="0" font-family="'MyriadPro-Regular'" font-size="17">cirkel</tspan><tspan x="0" y="30" font-family="'MyriadPro-Regular'" font-size="17">cirkel</tspan><tspan x="0" y="60" font-family="'MyriadPro-Regular'" font-size="17">cirkel</tspan><tspan x="0" y="90" font-family="'MyriadPro-Regular'" font-size="17">cirkel</tspan><tspan x="0" y="120" font-family="'MyriadPro-Regular'" font-size="17">cirkel</tspan></text>
<line fill="none" stroke="#39B54A" stroke-miterlimit="10" x1="304" y1="248" x2="304" y2="250"/>
</svg>
